<?xml version="1.0" encoding="utf-8"?><!-- Uploaded to: SVG Repo, www.svgrepo.com, Generator: SVG Repo Mixer Tools -->
<svg width="800px" height="800px" viewBox="0 0 32 32" fill="none" xmlns="http://www.w3.org/2000/svg">
<path d="M27 8H26.59L24.9 4.56C24.8175 4.3917 24.6894 4.24996 24.5303 4.15094C24.3712 4.05193 24.1874 3.99963 24 4C23.8164 3.99962 23.6362 4.04981 23.4792 4.14506C23.3222 4.24031 23.1945 4.37695 23.11 4.54L21.33 8H5C4.18925 8.01838 3.41871 8.3568 2.85662 8.94137C2.29454 9.52594 1.98658 10.3092 2 11.12V24.88C1.98658 25.6908 2.29454 26.4741 2.85662 27.0586C3.41871 27.6432 4.18925 27.9816 5 28H27C27.8108 27.9816 28.5813 27.6432 29.1434 27.0586C29.7055 26.4741 30.0134 25.6908 30 24.88V11.12C30.0134 10.3092 29.7055 9.52594 29.1434 8.94137C28.5813 8.3568 27.8108 8.01838 27 8Z" fill="#FFA000"/>
<path d="M23.76 18.89C24.3029 18.7478 24.795 18.4562 25.1804 18.0483C25.5658 17.6405 25.8292 17.1327 25.9404 16.5826C26.0517 16.0326 26.0064 15.4624 25.8098 14.9368C25.6132 14.4112 25.2731 13.9512 24.8282 13.6093C24.3833 13.2673 23.8513 13.0569 23.2928 13.0022C22.7343 12.9474 22.1717 13.0503 21.6688 13.2994C21.1659 13.5484 20.7429 13.9335 20.4479 14.4108C20.1529 14.8882 19.9977 15.4388 20 16C20.0026 16.4469 20.1051 16.8877 20.3 17.29C19.6153 17.1208 18.9149 17.0236 18.21 17C18.6039 16.5709 18.8643 16.0365 18.9596 15.4619C19.0549 14.8873 18.9808 14.2974 18.7465 13.7642C18.5121 13.231 18.1277 12.7775 17.64 12.4591C17.1523 12.1407 16.5824 11.9712 16 11.9712C15.4176 11.9712 14.8477 12.1407 14.36 12.4591C13.8723 12.7775 13.4879 13.231 13.2535 13.7642C13.0192 14.2974 12.9451 14.8873 13.0404 15.4619C13.1357 16.0365 13.3961 16.5709 13.79 17C13.0858 17.0171 12.3854 17.1075 11.7 17.27C11.892 16.8738 11.9944 16.4402 12 16C12.0023 15.4388 11.8471 14.8882 11.5521 14.4108C11.2571 13.9335 10.8341 13.5484 10.3312 13.2994C9.82833 13.0503 9.26567 12.9474 8.70717 13.0022C8.14868 13.0569 7.61674 13.2673 7.17181 13.6093C6.72688 13.9512 6.38678 14.4112 6.19017 14.9368C5.99356 15.4624 5.94832 16.0326 6.05958 16.5826C6.17084 17.1327 6.43415 17.6405 6.81959 18.0483C7.20502 18.4562 7.69713 18.7478 8.24 18.89C7.5758 19.3567 7.02817 19.9704 6.63967 20.6832C6.25118 21.396 6.03228 22.1888 6 23C6 23.2652 6.10536 23.5195 6.29289 23.7071C6.48043 23.8946 6.73478 24 7 24C7.26522 24 7.51957 23.8946 7.70711 23.7071C7.89464 23.5195 8 23.2652 8 23C8 20.83 10.84 19 14.2 19H17.8C21.16 19 24 20.83 24 23C24 23.2652 24.1054 23.5195 24.2929 23.7071C24.4804 23.8946 24.7348 24 25 24C25.2652 24 25.5196 23.8946 25.7071 23.7071C25.8946 23.5195 26 23.2652 26 23C25.9677 22.1888 25.7488 21.396 25.3603 20.6832C24.9718 19.9704 24.4242 19.3567 23.76 18.89ZM23 15C23.1978 15 23.3911 15.0586 23.5556 15.1685C23.72 15.2784 23.8482 15.4346 23.9239 15.6173C23.9996 15.8 24.0194 16.0011 23.9808 16.1951C23.9422 16.389 23.847 16.5672 23.7071 16.7071C23.5673 16.8469 23.3891 16.9422 23.1951 16.9807C23.0011 17.0193 22.8 16.9995 22.6173 16.9238C22.4346 16.8482 22.2784 16.72 22.1685 16.5555C22.0586 16.3911 22 16.1977 22 16C22 15.7347 22.1054 15.4804 22.2929 15.2929C22.4804 15.1053 22.7348 15 23 15ZM9 15C9.19778 15 9.39112 15.0586 9.55557 15.1685C9.72002 15.2784 9.84819 15.4346 9.92388 15.6173C9.99957 15.8 10.0194 16.0011 9.98079 16.1951C9.9422 16.389 9.84696 16.5672 9.70711 16.7071C9.56725 16.8469 9.38907 16.9422 9.19509 16.9807C9.00111 17.0193 8.80004 16.9995 8.61732 16.9238C8.43459 16.8482 8.27841 16.72 8.16853 16.5555C8.05865 16.3911 8 16.1977 8 16C8 15.7347 8.10536 15.4804 8.29289 15.2929C8.48043 15.1053 8.73478 15 9 15ZM16 14C16.1978 14 16.3911 14.0586 16.5556 14.1685C16.72 14.2784 16.8482 14.4346 16.9239 14.6173C16.9996 14.8 17.0194 15.0011 16.9808 15.1951C16.9422 15.389 16.847 15.5672 16.7071 15.7071C16.5673 15.8469 16.3891 15.9422 16.1951 15.9807C16.0011 16.0193 15.8 15.9995 15.6173 15.9238C15.4346 15.8482 15.2784 15.72 15.1685 15.5555C15.0586 15.3911 15 15.1977 15 15C15 14.7347 15.1054 14.4804 15.2929 14.2929C15.4804 14.1053 15.7348 14 16 14Z" fill="#1A237E"/>
<path d="M5 8C4.18925 8.01838 3.41871 8.3568 2.85662 8.94137C2.29454 9.52593 1.98658 10.3092 2 11.12V24.88C1.98658 25.6908 2.29454 26.4741 2.85662 27.0586C3.41871 27.6432 4.18925 27.9816 5 28H16V8H5Z" fill="#FFB300"/>
<path d="M15 15C15 14.7348 15.1054 14.4804 15.2929 14.2929C15.4804 14.1054 15.7348 14 16 14V12C15.4231 12.005 14.8599 12.1762 14.3778 12.4932C13.8957 12.8102 13.5153 13.2594 13.282 13.7871C13.0488 14.3148 12.9727 14.8985 13.0628 15.4684C13.1529 16.0382 13.4054 16.57 13.79 17C13.0858 17.0171 12.3854 17.1076 11.7 17.27C11.892 16.8738 11.9944 16.4402 12 16C12.0023 15.4388 11.8471 14.8883 11.5521 14.4109C11.2571 13.9335 10.8341 13.5484 10.3312 13.2994C9.82833 13.0504 9.26567 12.9474 8.70717 13.0022C8.14868 13.057 7.61674 13.2673 7.17181 13.6093C6.72688 13.9513 6.38678 14.4112 6.19017 14.9368C5.99356 15.4624 5.94832 16.0326 6.05958 16.5827C6.17084 17.1327 6.43415 17.6405 6.81959 18.0484C7.20502 18.4562 7.69713 18.7478 8.24 18.89C7.5758 19.3568 7.02817 19.9704 6.63967 20.6832C6.25118 21.396 6.03228 22.1888 6 23C6 23.2652 6.10536 23.5196 6.29289 23.7071C6.48043 23.8946 6.73478 24 7 24C7.26522 24 7.51957 23.8946 7.70711 23.7071C7.89464 23.5196 8 23.2652 8 23C8 20.83 10.84 19 14.2 19H16V16C15.7348 16 15.4804 15.8946 15.2929 15.7071C15.1054 15.5196 15 15.2652 15 15ZM9 17C8.80222 17 8.60888 16.9414 8.44443 16.8315C8.27998 16.7216 8.15181 16.5654 8.07612 16.3827C8.00043 16.2 7.98063 15.9989 8.01921 15.8049C8.0578 15.6109 8.15304 15.4327 8.29289 15.2929C8.43275 15.153 8.61093 15.0578 8.80491 15.0192C8.99889 14.9806 9.19996 15.0004 9.38268 15.0761C9.56541 15.1518 9.72159 15.28 9.83147 15.4444C9.94135 15.6089 10 15.8022 10 16C10 16.2652 9.89464 16.5196 9.70711 16.7071C9.51957 16.8946 9.26522 17 9 17Z" fill="#303F9F"/>
</svg>