<?xml version="1.0" encoding="utf-8"?><!-- Uploaded to: SVG Repo, www.svgrepo.com, Generator: SVG Repo Mixer Tools -->
<svg width="800px" height="800px" viewBox="0 0 32 32" fill="none" xmlns="http://www.w3.org/2000/svg">
<path d="M27.5 23H18.5C18.2348 23 17.9804 22.8946 17.7929 22.7071C17.6054 22.5196 17.5 22.2652 17.5 22C17.5 21.7348 17.6054 21.4804 17.7929 21.2929C17.9804 21.1054 18.2348 21 18.5 21H26.5V18C26.5 17.7348 26.6054 17.4804 26.7929 17.2929C26.9804 17.1054 27.2348 17 27.5 17C27.7652 17 28.0196 17.1054 28.2071 17.2929C28.3946 17.4804 28.5 17.7348 28.5 18V22C28.5 22.2652 28.3946 22.5196 28.2071 22.7071C28.0196 22.8946 27.7652 23 27.5 23Z" fill="#304046"/>
<path d="M10.5 27C10.2348 27 9.98043 26.8946 9.79289 26.7071C9.60536 26.5196 9.5 26.2652 9.5 26V23C9.5 22.7348 9.60536 22.4804 9.79289 22.2929C9.98043 22.1054 10.2348 22 10.5 22C10.7652 22 11.0196 22.1054 11.2071 22.2929C11.3946 22.4804 11.5 22.7348 11.5 23V26C11.5 26.2652 11.3946 26.5196 11.2071 26.7071C11.0196 26.8946 10.7652 27 10.5 27Z" fill="#304046"/>
<path d="M16.5 27C16.2348 27 15.9804 26.8946 15.7929 26.7071C15.6054 26.5196 15.5 26.2652 15.5 26V23C15.5 22.7348 15.6054 22.4804 15.7929 22.2929C15.9804 22.1054 16.2348 22 16.5 22C16.7652 22 17.0196 22.1054 17.2071 22.2929C17.3946 22.4804 17.5 22.7348 17.5 23V26C17.5 26.2652 17.3946 26.5196 17.2071 26.7071C17.0196 26.8946 16.7652 27 16.5 27Z" fill="#304046"/>
<path d="M21.33 28.45L19.33 25.45C19.2394 25.3124 19.1162 25.1994 18.9715 25.1209C18.8267 25.0424 18.6647 25.0009 18.5 25H8.5C8.33529 25.0009 8.17335 25.0424 8.02855 25.1209C7.88375 25.1994 7.76059 25.3124 7.67 25.45L5.67 28.45C5.58223 28.602 5.53603 28.7745 5.53603 28.95C5.53603 29.1255 5.58223 29.298 5.67 29.45C5.74825 29.6062 5.86606 29.7391 6.01168 29.8356C6.1573 29.9321 6.32567 29.9888 6.5 30H20.5C20.6809 29.9995 20.8583 29.95 21.0133 29.8566C21.1682 29.7633 21.295 29.6297 21.38 29.47C21.4641 29.3112 21.5038 29.1326 21.495 28.9531C21.4862 28.7736 21.4292 28.5998 21.33 28.45Z" fill="#BF360C"/>
<path d="M13.5 24C19.5751 24 24.5 19.0751 24.5 13C24.5 6.92487 19.5751 2 13.5 2C7.42487 2 2.5 6.92487 2.5 13C2.5 19.0751 7.42487 24 13.5 24Z" fill="#FF8F00"/>
<path d="M27.5 19C27.1044 19 26.7178 18.8827 26.3889 18.6629C26.06 18.4432 25.8036 18.1308 25.6522 17.7654C25.5009 17.3999 25.4613 16.9978 25.5384 16.6098C25.6156 16.2219 25.8061 15.8655 26.0858 15.5858C26.3655 15.3061 26.7219 15.1156 27.1098 15.0384C27.4978 14.9613 27.8999 15.0009 28.2654 15.1522C28.6308 15.3036 28.9432 15.56 29.1629 15.8889C29.3827 16.2178 29.5 16.6044 29.5 17C29.5 17.5304 29.2893 18.0391 28.9142 18.4142C28.5391 18.7893 28.0304 19 27.5 19Z" fill="#E65100"/>
<path d="M13.5 17C12.7089 17 11.9355 16.7654 11.2777 16.3259C10.6199 15.8864 10.1072 15.2616 9.80448 14.5307C9.50173 13.7998 9.42252 12.9956 9.57686 12.2196C9.7312 11.4437 10.1122 10.731 10.6716 10.1716C11.231 9.61216 11.9437 9.2312 12.7196 9.07686C13.4956 8.92252 14.2998 9.00173 15.0307 9.30448C15.7616 9.60723 16.3864 10.1199 16.8259 10.7777C17.2654 11.4355 17.5 12.2089 17.5 13C17.5 14.0609 17.0786 15.0783 16.3284 15.8284C15.5783 16.5786 14.5609 17 13.5 17ZM13.5 11C13.1044 11 12.7178 11.1173 12.3889 11.3371C12.06 11.5568 11.8036 11.8692 11.6522 12.2346C11.5009 12.6001 11.4613 13.0022 11.5384 13.3902C11.6156 13.7781 11.8061 14.1345 12.0858 14.4142C12.3655 14.6939 12.7219 14.8844 13.1098 14.9616C13.4978 15.0387 13.8999 14.9991 14.2654 14.8478C14.6308 14.6964 14.9432 14.44 15.1629 14.1111C15.3827 13.7822 15.5 13.3956 15.5 13C15.5 12.4696 15.2893 11.9609 14.9142 11.5858C14.5391 11.2107 14.0304 11 13.5 11Z" fill="#304046"/>
<path d="M10.52 27C10.2548 27 10.0004 26.8946 9.81289 26.7071C9.62536 26.5196 9.52 26.2652 9.52 26V23C9.52 22.7348 9.62536 22.4804 9.81289 22.2929C10.0004 22.1054 10.2548 22 10.52 22C10.7852 22 11.0396 22.1054 11.2271 22.2929C11.4146 22.4804 11.52 22.7348 11.52 23V26C11.52 26.2652 11.4146 26.5196 11.2271 26.7071C11.0396 26.8946 10.7852 27 10.52 27Z" fill="#304046"/>
<path d="M8.52 25C8.35529 25.0009 8.19334 25.0424 8.04855 25.1209C7.90375 25.1994 7.78059 25.3124 7.69 25.45L5.69 28.45C5.59451 28.5976 5.53961 28.7677 5.53083 28.9433C5.52205 29.1189 5.55971 29.2936 5.64 29.45C5.72502 29.6097 5.85177 29.7433 6.00674 29.8366C6.16171 29.93 6.33909 29.9795 6.52 29.98H13.52V25H8.52Z" fill="#F4511E"/>
<path d="M2.52 13C2.52 15.9174 3.67893 18.7153 5.74183 20.7782C7.80473 22.8411 10.6026 24 13.52 24V2C10.6026 2 7.80473 3.15893 5.74183 5.22183C3.67893 7.28473 2.52 10.0826 2.52 13Z" fill="#FFB300"/>
<path d="M11.52 13C11.52 12.4696 11.7307 11.9609 12.1058 11.5858C12.4809 11.2107 12.9896 11 13.52 11V9C12.4591 9 11.4417 9.42143 10.6916 10.1716C9.94143 10.9217 9.52 11.9391 9.52 13C9.52 14.0609 9.94143 15.0783 10.6916 15.8284C11.4417 16.5786 12.4591 17 13.52 17V15C12.9896 15 12.4809 14.7893 12.1058 14.4142C11.7307 14.0391 11.52 13.5304 11.52 13Z" fill="#424242"/>
</svg>