<?xml version="1.0" encoding="utf-8"?><!-- Uploaded to: SVG Repo, www.svgrepo.com, Generator: SVG Repo Mixer Tools -->
<svg width="800px" height="800px" viewBox="0 0 32 32" fill="none" xmlns="http://www.w3.org/2000/svg">
<path d="M10 27.4201H7C6.73478 27.4201 6.48043 27.3147 6.29289 27.1272C6.10536 26.9397 6 26.6853 6 26.4201C6 26.1549 6.10536 25.9005 6.29289 25.713C6.48043 25.5255 6.73478 25.4201 7 25.4201H9.23L10 23.1001C10.0417 22.9752 10.1078 22.8597 10.1943 22.7603C10.2808 22.661 10.3861 22.5797 10.5041 22.5212C10.6221 22.4626 10.7505 22.428 10.8819 22.4192C11.0134 22.4104 11.1453 22.4277 11.27 22.4701C11.52 22.5545 11.7265 22.7343 11.8445 22.9703C11.9625 23.2063 11.9825 23.4794 11.9 23.7301L10.9 26.7301C10.8375 26.9227 10.718 27.0918 10.5573 27.215C10.3966 27.3382 10.2022 27.4097 10 27.4201Z" fill="#FF8F00"/>
<path d="M6 28.42C5.60444 28.42 5.21776 28.3027 4.88886 28.083C4.55996 27.8632 4.30362 27.5509 4.15224 27.1854C4.00087 26.82 3.96126 26.4178 4.03843 26.0299C4.1156 25.6419 4.30608 25.2855 4.58579 25.0058C4.86549 24.7261 5.22186 24.5356 5.60982 24.4585C5.99778 24.3813 6.39992 24.4209 6.76537 24.5723C7.13082 24.7237 7.44318 24.98 7.66294 25.3089C7.8827 25.6378 8 26.0245 8 26.42C8 26.9505 7.78929 27.4592 7.41421 27.8343C7.03914 28.2093 6.53043 28.42 6 28.42Z" fill="#1565C0"/>
<path d="M9 7.42006C8.86769 7.41951 8.73681 7.39271 8.61493 7.34122C8.49306 7.28972 8.38261 7.21455 8.29 7.12006L6.59 5.42006H5C4.73478 5.42006 4.48043 5.3147 4.29289 5.12717C4.10536 4.93963 4 4.68528 4 4.42006C4 4.15484 4.10536 3.90049 4.29289 3.71295C4.48043 3.52542 4.73478 3.42006 5 3.42006H7C7.13161 3.4193 7.26207 3.44452 7.38391 3.49429C7.50574 3.54405 7.61656 3.61738 7.71 3.71006L9.71 5.71006C9.85103 5.84993 9.94721 6.02863 9.98628 6.22338C10.0253 6.41813 10.0055 6.6201 9.92937 6.80354C9.8532 6.98699 9.72413 7.14359 9.55861 7.25339C9.39309 7.36319 9.19862 7.42122 9 7.42006Z" fill="#FF8F00"/>
<path d="M4 6.42004C3.60444 6.42004 3.21776 6.30275 2.88886 6.08298C2.55996 5.86322 2.30362 5.55086 2.15224 5.18541C2.00087 4.81996 1.96126 4.41783 2.03843 4.02986C2.1156 3.6419 2.30608 3.28554 2.58579 3.00583C2.86549 2.72613 3.22186 2.53564 3.60982 2.45847C3.99778 2.3813 4.39992 2.42091 4.76537 2.57229C5.13082 2.72366 5.44318 2.98001 5.66294 3.3089C5.8827 3.6378 6 4.02448 6 4.42005C6 4.95048 5.78929 5.45919 5.41421 5.83426C5.03914 6.20933 4.53043 6.42004 4 6.42004Z" fill="#1565C0"/>
<path d="M21.95 6.42004H23.95L24.95 4.42004H26.95" fill="#F57C00"/>
<path d="M24 7.42008H22C21.7348 7.42008 21.4804 7.31472 21.2929 7.12718C21.1054 6.93965 21 6.68529 21 6.42008C21 6.15486 21.1054 5.9005 21.2929 5.71297C21.4804 5.52543 21.7348 5.42008 22 5.42008H23.38L24.06 4.00008C24.1424 3.82176 24.2755 3.67167 24.4427 3.56852C24.6098 3.46537 24.8037 3.41374 25 3.42008H27C27.2652 3.42008 27.5196 3.52543 27.7071 3.71297C27.8946 3.90051 28 4.15486 28 4.42008C28 4.68529 27.8946 4.93965 27.7071 5.12718C27.5196 5.31472 27.2652 5.42008 27 5.42008H25.57L24.85 6.86008C24.7714 7.02097 24.6511 7.15781 24.5016 7.25632C24.3521 7.35482 24.1788 7.41138 24 7.42008Z" fill="#F57C00"/>
<path d="M28.05 6.59009C27.6544 6.59009 27.2678 6.47279 26.9389 6.25303C26.61 6.03327 26.3536 5.72091 26.2022 5.35546C26.0509 4.99 26.0113 4.58787 26.0884 4.19991C26.1656 3.81195 26.3561 3.45558 26.6358 3.17588C26.9155 2.89617 27.2719 2.70569 27.6598 2.62852C28.0478 2.55135 28.4499 2.59095 28.8154 2.74233C29.1808 2.8937 29.4932 3.15005 29.7129 3.47895C29.9327 3.80785 30.05 4.19453 30.05 4.59009C30.05 5.12052 29.8393 5.62923 29.4642 6.0043C29.0891 6.37937 28.5804 6.59009 28.05 6.59009Z" fill="#1565C0"/>
<path d="M28.27 24.3001L24.27 20.3001L23 18.6601C22.9115 18.5535 22.8018 18.4664 22.6778 18.4044C22.5539 18.3424 22.4184 18.3069 22.28 18.3001C22.1424 18.2926 22.0048 18.3136 21.8758 18.3617C21.7467 18.4099 21.629 18.4843 21.53 18.5801L18.36 21.7201C18.2655 21.8127 18.1903 21.9231 18.1388 22.045C18.0873 22.1669 18.0605 22.2978 18.06 22.4301C18.0592 22.5617 18.0845 22.6921 18.1342 22.814C18.184 22.9358 18.2573 23.0466 18.35 23.1401L23.88 28.7001C24.4421 29.2628 25.2046 29.5794 26 29.5801C26.7954 29.5794 27.5579 29.2628 28.12 28.7001L28.29 28.5301C28.8461 27.9653 29.1561 27.2035 29.1524 26.4109C29.1486 25.6184 28.8314 24.8595 28.27 24.3001Z" fill="#304046"/>
<path d="M15.95 25.42C22.0251 25.42 26.95 20.4952 26.95 14.42C26.95 8.34491 22.0251 3.42004 15.95 3.42004C9.87486 3.42004 4.95 8.34491 4.95 14.42C4.95 20.4952 9.87486 25.42 15.95 25.42Z" fill="#01579B"/>
<path d="M15.95 21.42C19.816 21.42 22.95 18.286 22.95 14.42C22.95 10.5541 19.816 7.42004 15.95 7.42004C12.084 7.42004 8.95 10.5541 8.95 14.42C8.95 18.286 12.084 21.42 15.95 21.42Z" fill="#BBDEFB"/>
<path d="M10 27.5H7C6.73478 27.5 6.48043 27.3947 6.29289 27.2071C6.10536 27.0196 6 26.7652 6 26.5C6 26.2348 6.10536 25.9804 6.29289 25.7929C6.48043 25.6054 6.73478 25.5 7 25.5H9.28L10.05 23.18C10.1349 22.9281 10.3164 22.7201 10.5545 22.602C10.7927 22.4838 11.068 22.4651 11.32 22.55C11.572 22.6349 11.7799 22.8164 11.898 23.0545C12.0162 23.2927 12.0349 23.5681 11.95 23.82L10.95 26.82C10.8829 27.0186 10.7551 27.1911 10.5846 27.3132C10.4142 27.4352 10.2096 27.5005 10 27.5Z" fill="#FF8F00"/>
<path d="M6 28.5C5.60444 28.5 5.21776 28.3827 4.88886 28.1629C4.55996 27.9432 4.30362 27.6308 4.15224 27.2654C4.00087 26.8999 3.96126 26.4978 4.03843 26.1098C4.1156 25.7219 4.30608 25.3655 4.58579 25.0858C4.86549 24.8061 5.22186 24.6156 5.60982 24.5384C5.99778 24.4613 6.39992 24.5009 6.76537 24.6522C7.13082 24.8036 7.44318 25.06 7.66294 25.3889C7.8827 25.7178 8 26.1044 8 26.5C8 27.0304 7.78929 27.5391 7.41421 27.9142C7.03914 28.2893 6.53043 28.5 6 28.5Z" fill="#0277BD"/>
<path d="M9 7.50002C8.86839 7.50078 8.73793 7.47555 8.61609 7.42579C8.49426 7.37602 8.38344 7.3027 8.29 7.21002L6.59 5.50002H5C4.73478 5.50002 4.48043 5.39466 4.29289 5.20712C4.10536 5.01959 4 4.76523 4 4.50002C4 4.2348 4.10536 3.98045 4.29289 3.79291C4.48043 3.60537 4.73478 3.50002 5 3.50002H7C7.13161 3.49926 7.26207 3.52448 7.38391 3.57425C7.50574 3.62401 7.61656 3.69734 7.71 3.79002L9.71 5.79002C9.80373 5.88298 9.87812 5.99358 9.92889 6.11544C9.97966 6.2373 10.0058 6.368 10.0058 6.50002C10.0058 6.63203 9.97966 6.76273 9.92889 6.88459C9.87812 7.00645 9.80373 7.11705 9.71 7.21002C9.61656 7.3027 9.50574 7.37602 9.38391 7.42579C9.26207 7.47555 9.13161 7.50078 9 7.50002Z" fill="#FF8F00"/>
<path d="M4 6.5C3.60444 6.5 3.21776 6.3827 2.88886 6.16294C2.55996 5.94318 2.30362 5.63082 2.15224 5.26537C2.00087 4.89992 1.96126 4.49778 2.03843 4.10982C2.1156 3.72186 2.30608 3.36549 2.58579 3.08579C2.86549 2.80608 3.22186 2.6156 3.60982 2.53843C3.99778 2.46126 4.39992 2.50087 4.76537 2.65224C5.13082 2.80362 5.44318 3.05996 5.66294 3.38886C5.8827 3.71776 6 4.10444 6 4.5C6 5.03043 5.78929 5.53914 5.41421 5.91421C5.03914 6.28929 4.53043 6.5 4 6.5Z" fill="#0277BD"/>
<path d="M5 14.5C5 17.4174 6.15893 20.2153 8.22183 22.2782C10.2847 24.3411 13.0826 25.5 16 25.5V3.5C13.0826 3.5 10.2847 4.65893 8.22183 6.72183C6.15893 8.78473 5 11.5826 5 14.5Z" fill="#0277BD"/>
<path d="M9 14.5C9 16.3565 9.7375 18.137 11.0503 19.4497C12.363 20.7625 14.1435 21.5 16 21.5V7.5C14.1435 7.5 12.363 8.2375 11.0503 9.55025C9.7375 10.863 9 12.6435 9 14.5Z" fill="#E3F2FD"/>
</svg>