<?xml version="1.0" encoding="utf-8"?><!-- Uploaded to: SVG Repo, www.svgrepo.com, Generator: SVG Repo Mixer Tools -->
<svg width="800px" height="800px" viewBox="0 0 32 32" fill="none" xmlns="http://www.w3.org/2000/svg">
<path d="M16 2C13.0826 2 10.2847 3.15893 8.22182 5.22183C6.15892 7.28473 5 10.0826 5 13V29C4.99918 29.1519 5.03298 29.302 5.09882 29.4389C5.16466 29.5757 5.26082 29.6958 5.38 29.79C5.50018 29.8835 5.64013 29.9483 5.78917 29.9795C5.93821 30.0107 6.09241 30.0075 6.24 29.97L15 27.77V24C15 23.7348 15.1054 23.4804 15.2929 23.2929C15.4804 23.1054 15.7348 23 16 23C16.2652 23 16.5196 23.1054 16.7071 23.2929C16.8946 23.4804 17 23.7348 17 24V27.81L25.76 30C25.8397 30.0096 25.9203 30.0096 26 30C26.2652 30 26.5196 29.8946 26.7071 29.7071C26.8946 29.5196 27 29.2652 27 29V13C27 10.0826 25.8411 7.28473 23.7782 5.22183C21.7153 3.15893 18.9174 2 16 2Z" fill="#FBC02D"/>
<path d="M5 13V29C4.99918 29.1519 5.03298 29.302 5.09882 29.4389C5.16466 29.5757 5.26082 29.6958 5.38 29.79C5.50018 29.8835 5.64013 29.9483 5.78917 29.9795C5.93821 30.0107 6.09241 30.0075 6.24 29.97L15 27.8V24C14.9994 23.7465 15.0951 23.5022 15.2677 23.3165C15.4404 23.1309 15.6771 23.0177 15.93 23V2C13.0248 2.01849 10.2448 3.18557 8.19704 5.24647C6.14925 7.30737 4.99994 10.0947 5 13Z" fill="#FDD835"/>
<path d="M22.87 10.92C22.812 10.7422 22.7054 10.5843 22.5623 10.4641C22.4191 10.3439 22.2451 10.2663 22.06 10.24L18.46 9.70997L16.85 6.44997C16.7681 6.2809 16.6403 6.13832 16.4811 6.03855C16.3219 5.93878 16.1379 5.88586 15.95 5.88586C15.7621 5.88586 15.5781 5.93878 15.4189 6.03855C15.2597 6.13832 15.1319 6.2809 15.05 6.44997L13.44 9.70997L9.84 10.24C9.65686 10.2682 9.48516 10.3468 9.34409 10.467C9.20301 10.5871 9.09809 10.7441 9.04105 10.9205C8.984 11.0968 8.97708 11.2855 9.02104 11.4655C9.065 11.6455 9.15812 11.8098 9.29 11.94L11.89 14.48L11.28 18.07C11.2432 18.2565 11.2604 18.4496 11.3295 18.6267C11.3985 18.8038 11.5167 18.9576 11.67 19.07C11.8213 19.1816 12.001 19.2483 12.1885 19.2625C12.376 19.2766 12.5637 19.2376 12.73 19.15L16 17.43L19.22 19.13C19.3668 19.2004 19.5272 19.2379 19.69 19.24C19.8984 19.2386 20.1012 19.1722 20.27 19.05C20.4252 18.9388 20.5453 18.7856 20.6161 18.6084C20.687 18.4312 20.7057 18.2375 20.67 18.05L20 14.48L22.6 11.94C22.7356 11.812 22.8328 11.6487 22.8805 11.4685C22.9282 11.2882 22.9246 11.0983 22.87 10.92Z" fill="#C2185B"/>
<path d="M15.05 6.44995L13.44 9.70995L9.84 10.23C9.65373 10.2571 9.4789 10.3362 9.33561 10.4583C9.19232 10.5803 9.08639 10.7404 9.03 10.92C8.97819 11.0945 8.97502 11.2799 9.02084 11.4561C9.06666 11.6324 9.15973 11.7927 9.29 11.92L11.89 14.46L11.28 18.05C11.2495 18.2334 11.2708 18.4217 11.3415 18.5938C11.4121 18.7658 11.5293 18.9147 11.68 19.0238C11.8306 19.1329 12.0087 19.1978 12.1942 19.2113C12.3796 19.2247 12.5652 19.1862 12.73 19.1L16 17.43V5.93995C15.8095 5.92531 15.6187 5.96556 15.4504 6.05595C15.282 6.14633 15.1431 6.28306 15.05 6.44995Z" fill="#EC407A"/>
</svg>