<!DOCTYPE svg PUBLIC "-//W3C//DTD SVG 1.1//EN" "http://www.w3.org/Graphics/SVG/1.1/DTD/svg11.dtd">
<!-- Uploaded to: SVG Repo, www.svgrepo.com, Transformed by: SVG Repo Mixer Tools -->
<svg width="800px" height="800px" viewBox="0 0 1024 1024" class="icon" version="1.1" xmlns="http://www.w3.org/2000/svg" fill="#000000">
<g id="SVGRepo_bgCarrier" stroke-width="0"/>
<g id="SVGRepo_tracerCarrier" stroke-linecap="round" stroke-linejoin="round"/>
<g id="SVGRepo_iconCarrier">
<path d="M211.5 595.5l434.2-434.2c18.4-18.4 48.3-18.4 66.8 0L946.2 395c18.4 18.4 18.4 48.3 0 66.8L545.4 862.6c-18.4 18.4-48.3 18.4-66.8 0L211.5 595.5z" fill="#f58426"/>
<path d="M478.6 862.6L77.8 461.9c-18.4-18.4-18.4-48.3 0-66.8l233.7-233.7c18.4-18.4 48.3-18.4 66.8 0l400.8 400.8c18.4 18.4 18.4 48.3 0 66.8L545.4 862.6c-18.5 18.5-48.3 18.5-66.8 0z" fill="#466fb3"/>
<path d="M345 729.1L77.8 461.9c-18.4-18.4-18.4-48.3 0-66.8l233.7-233.7c18.4-18.4 48.3-18.4 66.8 0l400.8 400.8L345 729.1z" fill="#4686c2"/>
<path d="M294.8 344.9c-9.2-9.2-9.2-24.2 0-33.4L411.3 195c55.5-55.5 145.4-55.5 200.9 0L462.3 344.9c-46.3 46.2-121.3 46.2-167.5 0z" fill="#f58426"/>
</g>
</svg>