<!DOCTYPE svg PUBLIC "-//W3C//DTD SVG 1.1//EN" "http://www.w3.org/Graphics/SVG/1.1/DTD/svg11.dtd">
<!-- Uploaded to: SVG Repo, www.svgrepo.com, Transformed by: SVG Repo Mixer Tools -->
<svg width="800px" height="800px" viewBox="0 0 1024 1024" class="icon" version="1.1" xmlns="http://www.w3.org/2000/svg"
    fill="#000000">

    <g id="SVGRepo_bgCarrier" stroke-width="0" />

    <g id="SVGRepo_tracerCarrier" stroke-linecap="round" stroke-linejoin="round" />

    <g id="SVGRepo_iconCarrier">

        <path
            d="M864 704h-87c-52.9 0-96-43.1-96-96V416c0-52.9 43.1-96 96-96h87c52.9 0 96 43.1 96 96v192c0 52.9-43.1 96-96 96z m-87-320c-17.6 0-32 14.4-32 32v192c0 17.6 14.4 32 32 32h87c17.6 0 32-14.4 32-32V416c0-17.6-14.4-32-32-32h-87z"
            fill="#466fb3" />

        <path
            d="M704 832H128c-35.3 0-64-28.7-64-64V255.9c0-35.3 28.7-64 64-64h576c35.3 0 64 28.7 64 64V768c0 35.3-28.7 64-64 64z"
            fill="#4686c2" />

        <path d="M640.1 768h-448c-35.3 0-64-28.7-64-64V191.9h576V704c0 35.3-28.6 64-64 64z" fill="#f58426" />

        <path d="M128.2 191.9h576v256.3h-576z" fill="#f25922" />

        <path d="M128.2 191.9h576v127.9h-576z" fill="#4686c2" />

    </g>

</svg>