<!DOCTYPE svg PUBLIC "-//W3C//DTD SVG 1.1//EN" "http://www.w3.org/Graphics/SVG/1.1/DTD/svg11.dtd">
<!-- Uploaded to: SVG Repo, www.svgrepo.com, Transformed by: SVG Repo Mixer Tools -->
<svg width="800px" height="800px" viewBox="0 0 1024 1024" class="icon" version="1.1" xmlns="http://www.w3.org/2000/svg"
    fill="#000000">

    <g id="SVGRepo_bgCarrier" stroke-width="0" />

    <g id="SVGRepo_tracerCarrier" stroke-linecap="round" stroke-linejoin="round" />

    <g id="SVGRepo_iconCarrier">

        <path d="M512 192m-128 0a128 128 0 1 0 256 0 128 128 0 1 0-256 0Z" fill="#4686c2" />

        <path d="M110.021808 743.473457a128 128 0 1 0 221.702503-128 128 128 0 1 0-221.702503 128Z" fill="#4686c2" />

        <path d="M739.582127 791.504295a128 128 0 1 0 128-221.702504 128 128 0 1 0-128 221.702504Z" fill="#4686c2" />

        <path
            d="M181.7 509.3c-4.2 0-8.4-0.4-12.7-1.3-34.7-7-57.1-40.7-50.2-75.3 9.1-45.2 25.4-87.6 48.6-125.8 22.9-37.7 51.9-70.7 86.3-98.1 34.3-27.3 73.2-48.5 115.6-62.9C412.2 131.4 457.8 124 505 124c35.3 0 64 28.7 64 64s-28.7 64-64 64c-133.2 0-235.5 80.8-260.7 205.9-6.1 30.4-32.8 51.4-62.6 51.4zM512 913c-71.5 0-140.8-18.3-200.5-53.1-58.2-33.8-107.2-83.2-141.9-142.8-17.8-30.6-7.4-69.7 23.1-87.5 30.6-17.8 69.7-7.4 87.5 23.1C329.2 736.8 413.6 785 512 785c27.7 0 54.9-4.1 81-12.2 33.8-10.5 69.6 8.4 80.1 42.2 10.5 33.8-8.4 69.6-42.2 80.1C592.5 907 552.5 913 512 913zM807.9 738c-10.9 0-21.9-2.8-32-8.6-30.6-17.7-41-56.9-23.3-87.5C775 603.3 785 563.2 785 512c0-72.9-28.4-141.5-80-193-25-25-25-65.5 0-90.5s65.5-25 90.5 0c36.8 36.8 65.7 79.7 85.9 127.4 20.9 49.5 31.5 102 31.5 156.1 0 74-15.8 135.7-49.6 194.1-11.8 20.5-33.3 31.9-55.4 31.9z"
            fill="#f58426" />

    </g>

</svg>