<?xml version="1.0" encoding="UTF-8"?>
<svg xmlns="http://www.w3.org/2000/svg" xmlns:xlink="http://www.w3.org/1999/xlink" viewBox="0 0 441 355.2">
  <defs>
    <style>
      .n {
        fill: #da7b69;
      }

      .o, .p {
        stroke-miterlimit: 10;
      }

      .o, .p, .q {
        stroke-width: 5px;
      }

      .o, .q {
        fill: #f58426;
        stroke: #f58426;
      }

      .r {
        fill: #d15a44;
      }

      .p {
        fill: #f79d51;
        stroke: #f79d51;
      }

      .s {
        clip-path: url(#f);
      }

      .t {
        fill: #fff;
      }

      .u {
        font-size: 9px;
        letter-spacing: .2em;
      }

      .u, .v {
        fill: none;
        font-family: LEMONMILK-Medium, 'LEMON MILK';
        font-weight: 500;
      }

      .w {
        fill: #a74836;
      }

      .x {
        fill: url(#g);
      }

      .q {
        stroke-linecap: round;
        stroke-linejoin: round;
      }

      .y {
        clip-path: url(#h);
      }

      .z {
        letter-spacing: .28em;
      }

      .aa {
        fill: url(#i);
      }

      .ab {
        fill: #333;
      }

      .ac {
        fill: #fba08d;
      }

      .ad {
        letter-spacing: .37em;
      }

      .ae {
        fill: url(#b);
      }

      .af {
        letter-spacing: .49em;
      }

      .v {
        font-size: 10px;
      }

      .ag {
        letter-spacing: .2em;
      }

      .ah {
        fill: #d55b44;
      }
    </style>
    <linearGradient id="b" x1="-299.12" y1="138.84" x2="268.31" y2="178.52" gradientUnits="userSpaceOnUse">
      <stop offset="0" stop-color="#9ff"/>
      <stop offset=".11" stop-color="#83dbdb"/>
      <stop offset=".36" stop-color="#558e8e"/>
      <stop offset=".58" stop-color="#305151"/>
      <stop offset=".77" stop-color="#162525"/>
      <stop offset=".91" stop-color="#060a0a"/>
      <stop offset="1" stop-color="#000"/>
    </linearGradient>
    <clipPath id="f">
      <text class="v" transform="translate(178.17 153.53) rotate(-5.53)"><tspan class="z" x="0" y="0">0101</tspan><tspan class="ag" x="32.72" y="0">1</tspan><tspan class="ad" x="0" y="13">001</tspan><tspan class="ag" x="29.01" y="13">0</tspan><tspan class="z" x="0" y="26">1010</tspan><tspan class="ag" x="32.72" y="26">1</tspan><tspan class="af" x="0" y="39">010</tspan><tspan class="ag" x="32.72" y="39">1</tspan><tspan class="ad" x="0" y="52">010</tspan><tspan class="ag" x="29.01" y="52">0</tspan></text>
    </clipPath>
    <linearGradient id="g" data-name="New Gradient Swatch 1" x1="183.36" y1="172.83" x2="233.73" y2="172.83" gradientUnits="userSpaceOnUse">
      <stop offset="0" stop-color="#cce0f4"/>
      <stop offset=".09" stop-color="#c2d9ef"/>
      <stop offset=".24" stop-color="#a9c7e2"/>
      <stop offset=".43" stop-color="#80abcd"/>
      <stop offset=".54" stop-color="#6699c0"/>
      <stop offset="1" stop-color="#71aaa9"/>
    </linearGradient>
    <clipPath id="h">
      <text class="u" transform="translate(74.51 180.02) rotate(-6.87)"><tspan x="0" y="0">01011</tspan><tspan x="0" y="13">00101</tspan><tspan x="0" y="26">00110</tspan><tspan x="0" y="39">10100</tspan><tspan x="0" y="52">10011</tspan></text>
    </clipPath>
    <linearGradient id="i" data-name="New Gradient Swatch 1" x1="83.25" y1="205.78" x2="128.82" y2="205.78" xlink:href="#g"/>
  </defs>
  <g id="a" data-name="Base">
    <path class="ae" d="M100.36,158.45c-7.46,12.85-35.46,38.85-19.51,113.17,2.74,12.74,7.07,25.12,13.06,36.7,11.75,22.76,26.54,36.85,76.94,41.53,34.07,3.16,68.43.5,101.72-7.43,79.41-18.94,117.33-60.12,105.33-142.12-18.11-123.76-37.49-175.34-68.59-196.29-2.51-1.69-5.87-1.36-8.02.78-15.86,15.77-18.39,20.51-35.39,43.51-3.02,4.08-24.69,40.63-27.67,44.73-3.25,4.46-5.36,5.69-9.12,5.64-3.8-.05-27.65,1.31-40.41,6.68-2.32.98-5.02.32-6.68-1.58-9.17-10.42-34.87-35.54-45.48-41.31-2.28-1.24-5.09-.93-7.02.8-5.02,4.5-8.28,14.78-10.62,21.03-3.01,8.03-15,49-16.63,68.99-.16,1.93-.93,3.48-1.91,5.16Z"/>
  </g>
  <g id="c" data-name="Eyes">
    <g id="d" data-name="iris">
      <path class="q" d="M207.96,137.88c10.39,58.98-20.02,79.04-32.99,84.81,23.69,7.98,82.97-7.09,84.93-53.38.98-22.99-29.32-35.07-51.94-31.42Z"/>
      <path class="p" d="M207.96,137.88c-4,.64-7.75,1.77-11.06,3.42-32,16-36,76-23,81,.35.13.7.26,1.07.38,12.98-5.76,43.38-25.83,32.99-84.81Z"/>
      <path class="o" d="M117.9,210.47c.41-8.16-.89-17.19-5-24.32-2.93-5.08-5.68-7.5-10.32-7.75-1.43-.08-2.55,1.23-2.21,2.62,7.03,29.28-3.67,49.7-10.68,59.18-.94,1.28-.82,3.35.82,3.66,1.78.34,3.62.54,5.41.44h0c16.99-2.18,20.75-9.53,21.99-33.83Z"/>
      <path class="p" d="M99.8,178.81c-.4.07-.79.2-1.2.27-10.22,1.78-16.32,27.03-16.76,41.37-.46,7.56.9,17.33,6.21,21.67,6.93-8.52,20.52-30.42,11.75-63.31Z"/>
    </g>
    <g id="e" data-name="pupils">
      <path d="M213.41,174.43c1.83-16.27.03-30.43-11.46-31.12-8.19-.49-16.24,11.53-18.07,27.81s.91,29.59,11.46,31.12,16.24-11.53,18.07-27.81Z"/>
      <path d="M102,206.11c.8-11.95.46-21.76-5.07-22.37-6.21-.69-10.69,8.57-12.62,20.91-1.93,12.34-1.89,21.57,5.99,23.05,8.32,1.56,10.87-9.13,11.7-21.59Z"/>
    </g>
    <g class="s">
      <path class="x" d="M213.41,174.43c1.83-16.27.03-30.43-11.46-31.12-8.19-.49-16.24,11.53-18.07,27.81s.91,29.59,11.46,31.12,16.24-11.53,18.07-27.81Z"/>
    </g>
    <g class="y">
      <path class="aa" d="M102,206.11c.8-11.95.46-21.76-5.07-22.37-6.21-.69-10.69,8.57-12.62,20.91-1.93,12.34-1.89,21.57,5.99,23.05,8.32,1.56,10.87-9.13,11.7-21.59Z"/>
    </g>
    <g id="j" data-name="white">
      <path class="t" d="M185.06,175.52c2.19-4.46,1.43-8.41-1.65-8.81-3.04-.39-7.21,2.82-9.35,7.18s-1.47,8.29,1.51,8.79,7.29-2.69,9.48-7.16Z"/>
      <path class="t" d="M89.89,202.01c.87-3.2-.12-5.69-2.19-5.56s-4.37,2.75-5.22,5.88.07,5.62,2.09,5.57,4.44-2.68,5.32-5.88Z"/>
    </g>
  </g>
  <g id="k" data-name="ears">
    <path class="w" d="M141.08,74.27c-2.41-4.13-5.29-10.44-9.18-7.97-1.34,1.04-2.51,2.6-3.55,4.4,6.1,1.66,15.98,16.72,23.36,29.38.02.04.05.06.07.1-2.12-6.92-4.9-13.89-7.92-20.29-.92-1.95-1.81-3.77-2.77-5.62Z"/>
    <g>
      <path class="r" d="M324.8,119.63c-.07-.49-.24.55,0,0-.16-.84-1.55-9.04-1.75-9.8-.06-.2.15-.36.33-.26,3.17,1.85,6.69,5.17,10.2,9.13.16.12.32.25.48.37,3.94,3.1,8.39,5.93,10.38-.04,1.63-4.21,2.19-12.52,2.35-20.13.22-2.8-.4-12.67.88-16.38-8.94-34.68-21.57-52.33-30.78-63.22-2.05-2.42-3.73-4.3-5.19-5.7-.04-.04-.1-.03-.13,0l-1.38,1.44c-37.75,39.29-45.42,74.31-46.94,88.52-.09.8-.36,1.53-.77,2.16,39.85,4.19,59.88,19.32,62.98,22.17.16.14.4.02.39-.19-.1-1.31-.57-4.67-1.06-8.08-.01-.07.02.07,0,0"/>
      <path class="w" d="M346.79,98.9c-.15,7.61-.72,15.91-2.35,20.13-2.08,6.24-6.84,2.88-10.91-.38,9.04,10.16,18.01,24.57,20.58,29.19.23.41.84.37,1-.07,1.13-3.2.86-11.64.79-16.26-.01-.83-.06-1.66-.15-2.48-1.93-18.23-4.75-33.55-8.09-46.5-1.29,3.71-.66,13.58-.88,16.38Z"/>
      <path class="w" d="M310.2,15.05c.5-.52,1.09-.86,1.51-1.45-4.79-4.42-7.52-3.6-12.81,1.7-5.57,5.83-12.33,15.05-13,16-12,17-20.54,26.1-37,57-9.45,17.74-4.57,15.68-3,16.01.03,0-.03,0,0,0,.64.06,8.27.7,12,.99,1.56.13,3.09.27,4.59.43.41-.63.68-1.36.77-2.16,1.52-14.21,9.19-49.23,46.94-88.52Z"/>
    </g>
    <g>
      <path class="r" d="M153.13,104.91c-.41-1.57-.87-3.15-1.35-4.73-.02-.03-.05-.06-.07-.1-7.37-12.66-17.26-27.72-23.36-29.38-1.99,3.45-3.49,7.81-4.75,11.3-.26.73-.56,1.57-.86,2.45-1.91,21.65-1.54,44.39-1.15,55.94,9.02-7.19,18.89-13.38,26.92-17.83.99-.63,2.15-1.19,3.22-1.82,2.14-1.27,3.43-3.58,3.33-6.06-.12-3.1-1.27-6.59-1.94-9.77Z"/>
      <path class="n" d="M122.74,84.46c-2.82,8.13-7.19,22.08-8.84,28.84-6.42,24.01-7.83,33.35-8.06,36.9-.06,1.01,1.02,1.68,1.88,1.15,1.68-1.02,4.62-3.06,9.18-7.05,1.53-1.33,3.1-2.63,4.69-3.9-.39-11.55-.77-34.29,1.15-55.94Z"/>
    </g>
  </g>
  <g id="l" data-name="nose">
    <path class="ac" d="M139.79,238.11c-2.13-1.5-6.19-1.33-10.85.24-7.51,2.2-9.34,7.6-3.8,12.85,1.56,1.46,4,3.47,6.07,3.97,2.17-2.5,8.59-10.46,8.58-17.06Z"/>
    <path class="ah" d="M132.58,255.25c2.53-.82,5.17-5.2,6.82-7.91,2.72-4.8,2.45-7.79.39-9.23.01,6.6-6.41,14.56-8.58,17.06.48.12.94.15,1.37.08Z"/>
  </g>
  <g id="m" data-name="whiskers">
    <path class="ab" d="M2.64,304.3c21.43-30.04,74.56-50.7,109.85-58.96,1.08-.24,2.14.44,2.38,1.52.25,1.09-.47,2.18-1.57,2.39-20.32,4.31-40.37,11.1-59.29,19.71-14,6.88-27.56,14.99-39.79,24.7-3.96,3.37-7.63,7.12-11.2,10.96-.19.23-.58-.08-.38-.32h0Z"/>
    <path class="ab" d="M114.4,254.2c-20.47,4.37-38.87,15.3-55.99,27.02-8.7,5.81-17.35,11.74-25.94,17.8-8.61,6.01-17.08,12.2-25.14,18.93-.11.09-.26.07-.35-.03-.08-.1-.07-.25.02-.34,7.54-7.36,15.82-13.93,24.09-20.44,12.47-9.7,25.13-19.29,38.98-26.98,13.84-7.8,28.14-14.99,43.34-19.76,2.65-.84,3.79,3.19,1,3.81h0Z"/>
    <path class="ab" d="M116.23,258.63c-9.47,2.59-18.26,7.43-26.7,12.7-25.31,16.07-47.66,36.43-67.4,58.93-.19.23-.59-.06-.39-.31,17.88-24.36,40.94-44.65,66.46-60.73,8.45-5.44,17.32-10.52,27.1-13.7.85-.28,1.77.19,2.05,1.04.29.88-.23,1.83-1.12,2.07h0Z"/>
    <path class="ab" d="M150.36,234.86c22.97-4.81,46.3-6.44,69.54-8.87,23.22-2.34,46.53-3.79,69.86-4.25,46.63-.89,93.22,2.41,139.64,6.45-58.02-4.08-116.33-6.7-174.39-1.93-34.55,3.39-69.73,6.36-103.57,13.48-3.14.67-4.41-4.05-1.08-4.88h0Z"/>
    <path class="ab" d="M150.59,240.82c95.64-11.31,192.52-4.81,287.31,10.48-94.88-13.61-191.5-18.45-286.69-5.52-3.25.35-3.96-4.46-.61-4.96h0Z"/>
    <path class="ab" d="M149.67,246.81c90.75-7.57,181.26,7.49,270.52,22.11-89.29-12.94-179.77-26.33-270.06-17.14-3.25.27-3.82-4.61-.46-4.98h0Z"/>
  </g>
</svg>